<svg xmlns="http://www.w3.org/2000/svg" xmlns:xlink="http://www.w3.org/1999/xlink" width="310" height="133" viewBox="0 0 310 133">
    <g fill="none" fill-rule="evenodd">
        <path fill="#E6282B" d="M300.317 103.066c-.932-1.923-2.955-3.252-5.303-3.498-79.728-8.325-142.837-1.119-186.026 8.171-4.964 1.067-8.001 6.242-6.318 11.032.189.541.426 1.094.715 1.658.922 1.799 3.04 2.623 4.976 2.041 64.349-19.354 137.797-19.377 190.004-15.631 1.777.128 3.069-1.467 2.366-2.918l-.414-.855z"/>
        <path fill="#E6282B" d="M140.17 61.965c-.062.2-.191.406-.388.62-1.637 1.72-3.068 3.952-4.293 6.696-1.223 2.744-1.862 5.218-1.928 7.413.006.257-.052.49-.178.697-3.701 6.672-6.863 10.186-9.602 10.531-1.693.215-2.555-.834-2.59-3.151.013-2.838.952-6.653 2.857-11.433 1.906-4.78 4.258-9.124 7.06-13.021 2.802-3.898 5.305-5.96 7.464-6.191 1.417-.152 2.148.77 2.19 2.758.044 1.925-.155 3.62-.591 5.08m85.324 1.125c2.337-4.148 4.92-7.75 7.747-10.8 2.826-3.049 5.044-4.575 6.619-4.587.684-.006.997.407.934 1.24-.161 2.176-1.97 5.242-5.361 9.218-3.394 3.979-6.41 6.002-9.101 6.06-.741.017-1.1-.166-1.075-.55.012-.194.09-.388.237-.581M308.7 44.236c-.523-.647-1.262-1.325-2.306-1.923-2.44-1.398-4.628-1.784-7.67-.97a7.211 7.211 0 0 0-2.105 1.133c-2.57 1.672-7.33 7.532-10.606 11.677-.003 0-6.252 8.511-10.511 14.248-1.316 1.773-2.552 3.269-3.217 4.145-.292.383-2.944 3.551-3.294 3.93-1.227 1.33-2.343 2.34-3.353 3.03-1.011.692-1.88 1.044-2.612 1.06-.665.014-.974-.337-.93-1.056.058-.915.636-2.446 1.747-4.588a50.492 50.492 0 0 1 3.644-6.01c1.322-1.863 2.92-4.107 4.81-6.726 1.888-2.618 3.08-4.252 3.557-4.907 1.39-1.524 2.145-2.979 2.25-4.368.15-1.955-.804-3.578-2.872-4.86-2.071-1.28-4.895-2.444-8.474-3.473-.273-.059-.401-.186-.39-.378.005-.063.08-.159.227-.29 1.824-2.654 2.805-4.843 2.92-6.572.12-1.793-.758-2.68-2.636-2.648-2.018.034-4.111 1.019-6.265 2.955-2.157 1.936-3.301 4.288-3.455 7.043-.053.962.059 1.76.337 2.392.054.122.14.223.214.33a838.573 838.573 0 0 1-8.918 13.484 148.63 148.63 0 0 1-7.582 9.348c-2.931 3.283-5.935 5.908-9.02 7.879-3.088 1.969-5.677 2.985-7.794 3.035-2.713.067-3.974-1.526-3.79-4.796.113-1.984.749-4.436 1.92-7.346.082-.257.256-.39.526-.396 1.256.224 2.22.33 2.89.315 4.688-.106 9.333-2.112 14.01-6.023 4.675-3.907 7.23-8.012 7.585-12.365.147-1.791-.285-3.422-1.3-4.894-1.014-1.468-2.305-2.568-3.866-3.295-1.561-.724-3.137-1.08-4.721-1.065-3.65.04-7.647 2.1-11.922 6.195-4.278 4.094-7.791 8.886-10.556 14.353-.208.412-.396.814-.59 1.22l-.135.196c-.977 1.41-1.897 2.738-2.758 3.985a151.56 151.56 0 0 1-2.835 3.948 210.593 210.593 0 0 1-2.858 3.766 87.465 87.465 0 0 1-2.511 3.086c-.797.933-1.518 1.653-2.165 2.164-.646.512-1.133.776-1.462.792-.595.029-.88-.277-.858-.92.058-1.537 1.667-5.368 4.91-11.466 3.248-6.1 6.522-11.475 9.803-16.133.949-1.375 1.445-2.414 1.48-3.12a6.856 6.856 0 0 0-.424-2.771 7.866 7.866 0 0 0-1.371-2.355 6.919 6.919 0 0 0-2.08-1.657c-.801-.417-1.616-.612-2.44-.581-1.298.05-3.33 1.22-6.07 3.517-2.74 2.299-5.67 5.194-8.771 8.689a154.17 154.17 0 0 0-9.08 11.29c-.205.206-.406.314-.606.328-.267.017-.398-.093-.393-.332 0-.061.035-.123.104-.186a624.909 624.909 0 0 1 12.254-23.235 368.029 368.029 0 0 1 3.549-6.267 4.297 4.297 0 0 0-1.186-5.633l-1.948-1.419a3.284 3.284 0 0 0-4.858 1.154 1327.164 1327.164 0 0 0-12.401 24.818 918.07 918.07 0 0 0-2.773 5.757 381.833 381.833 0 0 1-5.647 8.824c-2.392 3.615-4.87 6.927-7.443 9.938-2.571 3.011-4.53 4.584-5.907 4.71-.983.09-1.48-.474-1.488-1.697-.01-1.352.588-3.742 1.81-7.17 1.225-3.426 2.786-7.188 4.7-11.277a225.472 225.472 0 0 1 6.216-12.282c.136-.209.376-.327.717-.353 2.254-.236 3.79-.412 4.606-.535 1.632-.311 3.047-.938 4.25-1.886 1.2-.948 1.813-1.837 1.827-2.672.012-.704-.528-1.118-1.617-1.237-.683-.018-2.388 0-5.115.069-.342.025-.51-.105-.508-.389 0-.07.035-.18.105-.326.446-.727.87-1.412 1.272-2.053a4.295 4.295 0 0 0-1.118-5.75l-1.47-1.07a3.283 3.283 0 0 0-4.763.986 394.762 394.762 0 0 0-5.04 8.846c-.133.385-.33.587-.596.61-2.855.305-4.88.646-6.07 1.009-.728.257-1.09.736-1.082 1.438.005.637.343 1.307 1.012 2.011.668.706 1.432 1.148 2.295 1.326.332.036.5.15.5.339a.411.411 0 0 1-.1.295 1171.435 1171.435 0 0 0-7.846 13.974c-.446.808-.87 1.567-1.281 2.305-.451.61-.931 1.24-1.47 1.919-1.501 1.885-2.903 3.155-4.214 3.807l-.2.021c-.264.029-.366-.09-.304-.352-.001-.065.029-.133.094-.205 2.602-5.803 3.905-10.753 3.836-14.862-.05-3.015-.825-5.06-2.335-6.13-.206-.172-.345-.35-.416-.535-1.832-3.8-4.735-5.496-8.674-5.064-2.92.32-5.956 1.956-9.07 4.904-3.115 2.948-5.744 6.404-7.887 10.355a67.842 67.842 0 0 0-4.035 8.925 1250.725 1250.725 0 0 0-4.32 7.818 41.13 41.13 0 0 1-2.72 4.267 1169.313 1169.313 0 0 0-2.703 3.772c-.75 1.053-1.528 1.928-2.336 2.63-.81.701-1.504 1.096-2.087 1.184-.648.097-1.002-.302-1.06-1.206-.075-1.147.395-2.782 1.419-4.906 1.023-2.124 2.01-4.157 2.959-6.103.947-1.944 2.124-4.344 3.54-7.197 1.416-2.852 2.309-4.63 2.662-5.337 1.227-1.644 1.812-3.137 1.744-4.482-.102-1.986-1.256-3.495-3.475-4.513-2.218-1.017-5.11-1.823-8.672-2.403-.48-.059-.593-.268-.344-.629 1.515-2.871 2.233-5.17 2.129-6.9-.108-1.794-1.08-2.563-2.912-2.295-1.221.178-2.487.754-3.79 1.724-1.304.971-2.423 2.323-3.358 4.053-.936 1.73-1.333 3.525-1.2 5.38.069.96.328 1.73.775 2.307a.72.72 0 0 1 .124.321.805.805 0 0 1-.076.352c-1.537 3.684-3.184 6.639-5.645 11.588a1.617 1.617 0 0 0 1.059 2.29l.224.055a3.502 3.502 0 0 0 4.053-2.017c2.143-4.974 3.028-7.534 4.366-10.402.175-.416.395-.642.663-.684a14.03 14.03 0 0 1 2.015-.155c.675-.004 1.377.151 2.106.465.728.314 1.11.791 1.15 1.431.06.961-.591 2.745-1.935 5.352-1.345 2.61-2.74 5.34-4.183 8.194-1.443 2.853-2.732 5.928-3.867 9.222-1.136 3.294-1.615 5.969-1.462 8.02a9.304 9.304 0 0 0 .71 2.945 8.676 8.676 0 0 0 1.553 2.472 5.84 5.84 0 0 0 2.307 1.574c.902.342 1.865.433 2.893.273 1.697-.264 3.503-1.279 5.43-3.047 1.928-1.767 4.153-4.463 6.703-8.085a170.152 170.152 0 0 0 2.69-3.936c.004.251-.018.526-.006.77.185 3.528 1.344 6.27 3.46 8.242 2.116 1.971 4.522 2.778 7.235 2.428 2.713-.35 5.463-1.805 8.278-4.365 2.814-2.56 5.452-5.774 7.92-9.652.127-.208.387-.334.78-.377 2.54-.278 5.045-1.575 7.54-3.855.426-.091.852-.206 1.278-.352.064-.07.13-.11.196-.118.198-.02.298.035.3.163 0 .066-.032.164-.095.3-.622 2.569-.915 4.624-.891 6.165.046 2.825.75 4.986 2.11 6.489 1.356 1.502 3.07 2.151 5.15 1.954 1.887-.18 4.04-1.344 6.483-3.486 1.926-1.689 3.68-3.6 5.343-5.633-.062.158-.13.326-.186.473-.2.66-.3 1.31-.3 1.951-.004 1.541.58 2.825 1.75 3.85 1.172 1.029 2.372 1.494 3.612 1.397 1.04-.082 1.666-.578 1.87-1.492 3.325-6.025 7.984-12.984 14.102-20.822 6.119-7.836 11.39-13.685 15.682-17.59.21-.202.383-.305.52-.31.204-.01.303.082.295.274-.005.13-.043.227-.113.294-2.378 3.562-3.981 6.041-4.838 7.428-.856 1.386-2.25 3.761-4.16 7.13-1.91 3.367-3.268 6.265-4.095 8.682-.827 2.42-1.261 4.56-1.31 6.42-.07 2.76.566 4.869 1.899 6.329 1.334 1.46 2.814 2.145 4.45 2.057 3.639-.19 8.607-4.81 15.183-13.727-.016.216-.044.438-.054.65-.174 3.72.76 6.676 2.786 8.875 2.025 2.201 4.668 3.248 7.953 3.16 4.202-.115 8.458-1.85 12.824-5.209 4.366-3.356 8.348-7.397 11.952-12.14 2.449-3.142 4.317-5.662 5.597-7.57 2.459-3.358 5.728-8.206 9.885-14.258.185.016.352.024.49.028 1.165.032 2.32.13 3.463.462 1.143.331 1.682.982 1.618 1.945-.063.965-.95 2.66-2.643 5.092a1099.176 1099.176 0 0 0-5.244 7.599c-1.803 2.633-3.505 5.511-5.11 8.63-1.604 3.121-2.455 5.775-2.57 7.955-.072 1.41.14 2.716.638 3.915a6.867 6.867 0 0 0 2.313 2.953c1.044.77 2.257 1.133 3.642 1.097 1.772-.046 3.752-.796 5.952-2.252 2.199-1.457 4.375-3.37 6.53-5.742.192-.21 6.714-8.188 7.953-10.043 1.224-1.743 8.442-11.965 13.298-17.844a64.938 64.938 0 0 0-.103 2.907c-.043 3.322 1.1 13.634.67 19.595-.427 5.964-4.82 9.358-10.367 9.085-3.1-.154-4.99-1.77-6.054-3.168-.868-1.14-2.75-.704-2.89.722-.048.501.075 1.02.378 1.465 4.68 6.884 12.634 6.556 12.634 6.556s8.85-.226 13.386-6.406c4.535-6.18 2.495-19.55 2.32-26.957-.117-5.005 3.523-7.741 5.899-8.991a2.318 2.318 0 0 0 .74-3.524"/>
        <path fill="#211D1A" d="M119.314 23.385a3.003 3.003 0 0 1-1.179.38c-.597.066-1.274.01-2.033-.173-.758-.182-1.57-.51-2.437-.986l-.11 2.71a8.972 8.972 0 0 0 4.917.831c1.035-.116 1.93-.42 2.681-.915.751-.496 1.305-1.132 1.661-1.909a4.622 4.622 0 0 0 .39-2.48c-.072-.639-.242-1.19-.51-1.662a5.447 5.447 0 0 0-.987-1.25 7.941 7.941 0 0 0-1.263-.966 36.91 36.91 0 0 0-1.352-.793c-.713-.389-1.23-.704-1.55-.946a3.702 3.702 0 0 1-.753-.727 1.642 1.642 0 0 1-.32-.804c-.073-.653.114-1.21.56-1.67.442-.462 1.062-.737 1.858-.826a5.821 5.821 0 0 1 1.808.096c.631.127 1.23.341 1.795.64l.133-2.615a8.586 8.586 0 0 0-1.924-.486 7.98 7.98 0 0 0-2.03-.04 6.47 6.47 0 0 0-2.762.941c-.82.515-1.435 1.164-1.845 1.947a4.258 4.258 0 0 0-.464 2.502c.07.63.244 1.183.53 1.665.284.48.65.92 1.102 1.322.451.4 1.18.883 2.187 1.45.362.208.712.414 1.048.615.337.2.641.412.911.635.272.224.494.465.668.724.172.26.28.556.317.89.046.406-.028.773-.222 1.102a2.214 2.214 0 0 1-.825.798M139.1 12.876c.451-1.229 1.092-2.2 1.925-2.913.83-.71 1.768-1.113 2.815-1.205.828-.07 1.58.06 2.246.396.67.336 1.204.845 1.607 1.526.401.68.64 1.48.721 2.398a9.077 9.077 0 0 1-.46 3.83c-.428 1.21-1.06 2.184-1.902 2.922-.84.736-1.78 1.15-2.817 1.24-.838.073-1.594-.058-2.266-.393-.675-.336-1.217-.85-1.632-1.547-.413-.696-.664-1.523-.747-2.48a8.653 8.653 0 0 1 .51-3.774m-2.175 7.641a6.522 6.522 0 0 0 2.763 2.42c1.143.535 2.391.743 3.74.627a8.237 8.237 0 0 0 4.344-1.664c1.274-.968 2.226-2.239 2.851-3.815.628-1.574.862-3.296.7-5.165-.123-1.396-.52-2.627-1.192-3.69a6.255 6.255 0 0 0-2.689-2.378c-1.118-.522-2.353-.724-3.702-.607a8.333 8.333 0 0 0-3.424 1.053 8.495 8.495 0 0 0-2.67 2.387 10.067 10.067 0 0 0-1.608 3.35 10.634 10.634 0 0 0-.34 3.77c.12 1.397.53 2.634 1.227 3.712M167.757 13.994l5.313-.36.153-2.384-5.278.358.32-4.71 5.949-.402.15-2.384-8.718.592-1.262 16.916 2.817-.191zM190.786 20.038l2.869-.149 1.276-14.46 5.042-.26.223-2.433-12.904.67-.226 2.428 4.996-.257zM216.789 19.012l5.23-11.74 3.456 11.455 1.13-.037 7.612-17.22-2.896.095-4.772 11.413-.072.003-3.398-11.145-1.188.04-4.967 11.3h-.05l-2.71-11.047-2.798.092 4.27 16.83zM251.346 4.234h.06l1.213 7.121-4.062.063 2.79-7.183zm-3.623 9.24l5.24-.08.862 4.543 2.78-.042-3.386-16.887-2.872.044-7.507 17.053 3.006-.047 1.877-4.585z"/>
        <g transform="translate(270 .638)">
            <path fill="#211D1A" d="M4.945 2.73h1.502c.953 0 1.682.199 2.183.596.5.397.75.96.75 1.69 0 .545-.142 1.02-.426 1.429-.287.409-.702.73-1.252.962-.548.233-1.219.348-2.014.348l-1.43-.001.687-5.023zM3.91 10.016l.842-.001c.424 0 .766.039 1.026.115.262.077.498.21.711.403.21.192.434.467.665.824.233.356.604 1.052 1.118 2.085l1.79 3.714h3.077l-2.93-5.853a6.212 6.212 0 0 0-.657-1.13 2.628 2.628 0 0 0-.894-.77v-.096c1.144-.256 2.049-.78 2.711-1.568.66-.788.991-1.696.991-2.722 0-.61-.099-1.194-.294-1.755a3.749 3.749 0 0 0-.967-1.485c-.449-.43-1.037-.771-1.76-1.027C8.612.49 7.724.363 6.676.363L2.409.362.049 17.155h2.874l.987-7.14z"/>
        </g>
        <path fill="#211D1A" d="M308.117 15.72l-8.51-.131.763-5.002 6.009.093.384-2.363-6.008-.093.734-4.664 6.789.105.385-2.362-9.626-.15-2.64 16.754 11.347.176z"/>
        <g transform="translate(0 3.638)">
            <path fill="#E6282B" d="M46.99 112.023c-7.99 5.028-14.65 7.206-22.443 7.206-.76 0-5.881.056-9.588-2.346-2.55-1.651-4.29-4.356-4.29-6.814 0-4.852 3.72-8.536 10.202-9.053 11.442-.906 18.915 4.153 25.995 9.61l1.032.826-.907.57zM72.6 57.275c17.424-11.244 21.732-20.792 23.57-24.87 1.35-2.99 3.51-11.995-1.294-19.495-2.893-4.742-8.161-9.172-16.368-11.167-8.388-2.038-17.45-1.821-25.652-.361-4.756.847-15.267 3.782-22.184 10.327-7.453 7.05-11.05 17.506-7.038 22.782.433.57 1.078.522 1.336.478a1.908 1.908 0 0 0 1.468-1.315c3.33-10.881 11.726-18.318 24.277-21.507 10.21-2.596 19.566-1.601 23.576-.765 5.353 1.118 9.37 4.249 10.744 8.546 1.307 4.08 1.38 11.116-8.172 21.45-11.211 12.13-25.596 17.306-33.41 19.31l-1.52.39.654-1.426a952.467 952.467 0 0 1 4.803-10.285c.822-1.74 1.62-3.434 2.388-5.077.283-.568.91-1.843 1.692-3.423 1.806-3.661 4.42-8.961 5.31-10.716 1.238-2.442.658-5.231-1.378-6.63l-2.691-1.846a3.796 3.796 0 0 0-3.137-.518 3.715 3.715 0 0 0-2.41 1.97c-1.202 2.516-19.72 42.867-21.536 46.929a4.372 4.372 0 0 0 .312 4.178 22.924 22.924 0 0 0 5.023 5.496 1.896 1.896 0 0 0 1.655.365 1.843 1.843 0 0 0 1.254-1.054c1.259-2.851 3.87-8.704 3.87-8.704l.287-.111c4.872-1.888 10.154-2.901 15.698-3.013 5.849-.127 10.065 1.374 12.503 4.434 1.279 1.604 2.944 4.873 2.056 9.405-1.481 7.554-7.26 17.917-13.263 24.8 0 0-2.906-2.703-7.271-6.023-3.473-2.642-9.693-6.361-14.972-8.061-4.751-1.53-8.418-2.286-14.318-1.778-9.434.812-17.018 6.776-18.32 16.393-.934 6.917 2.7 15.68 11.434 19.674 2.944 1.222 7.134 2.563 12.126 2.87 5.718.352 12.6-.586 18.96-2.307 5.858-1.585 11.327-4.891 15.349-7.357a13.14 13.14 0 0 0 1.814.975c14.008 6.01 25.03-.436 30.445-6.92 1.516-1.815 2.462-3.612 3.052-5.161 1.089-2.857.439-6.115-1.712-8.288l-.06-.06c-.79-.79-1.832-1.267-2.805-1.557a3.209 3.209 0 0 0-3.794 1.645c-1.775 3.58-5.813 10.699-10.9 13.437-1.773.954-3.755 1.075-5.685.72-.945-.174-1.853-.501-2.72-.917 1.2-1.27 2.292-2.48 3.113-3.41a44.353 44.353 0 0 0 3.235-4.1c5.427-7.832 7.618-15.495 8.278-18.32C82.64 77.196 79.22 65.39 68.357 61.156l-1.52-.592 1.44-.766a58.403 58.403 0 0 0 4.324-2.522z"/>
        </g>
    </g>
</svg>
